HIERARCHY
ROOT Hips
{
	OFFSET 0.000000 0.000000 0.000000
	CHANNELS 6 Xposition Yposition Zposition Zrotation Yrotation Xrotation 
	JOINT LowerBack
	{
		OFFSET 0.000000 0.000000 0.000000
		CHANNELS 3 Zrotation Yrotation Xrotation
		JOINT Spine
		{
			OFFSET 0.028270 2.035590 -0.193380
			CHANNELS 3 Zrotation Yrotation Xrotation
			JOINT Spine1
			{
				OFFSET 0.056720 2.048850 -0.042750
				CHANNELS 3 Zrotation Yrotation Xrotation
				JOINT Neck
				{
					OFFSET 0.000000 0.000000 0.000000
					CHANNELS 3 Zrotation Yrotation Xrotation
					JOINT Neck1
					{
						OFFSET -0.054170 1.746240 0.172020
						CHANNELS 3 Zrotation Yrotation Xrotation
						JOINT Head
						{
							OFFSET 0.104070 1.761360 -0.123970
							CHANNELS 3 Zrotation Yrotation Xrotation
							End Site
							{
								OFFSET 0.000000 0.000000 0.000000
							}
						}
					}
				}
				JOINT LeftShoulder
				{
					OFFSET 0.000000 0.000000 0.000000
					CHANNELS 3 Zrotation Yrotation Xrotation
					JOINT LeftArm
					{
						OFFSET 3.362410 1.200890 -0.311210
						CHANNELS 3 Zrotation Yrotation Xrotation
						JOINT LeftForeArm
						{
							OFFSET 4.983000 -0.000000 -0.000000
							CHANNELS 3 Zrotation Yrotation Xrotation
							JOINT LeftHand
							{
								OFFSET 3.483560 -0.000000 -0.000000
								CHANNELS 3 Zrotation Yrotation Xrotation
								JOINT LeftFingerBase
								{
									OFFSET 0.000000 0.000000 0.000000
									CHANNELS 3 Zrotation Yrotation Xrotation
									JOINT LeftHandIndex1
									{
										OFFSET 0.715260 -0.000000 -0.000000
										CHANNELS 3 Zrotation Yrotation Xrotation
										End Site
										{
											OFFSET 0.000000 0.000000 0.000000
										}
									}
								}
								JOINT LThumb
								{
									OFFSET 0.000000 0.000000 0.000000
									CHANNELS 3 Zrotation Yrotation Xrotation
									End Site
									{
										OFFSET 0.000000 0.000000 0.000000
									}
								}
							}
						}
					}
				}
				JOINT RightShoulder
				{
					OFFSET 0.000000 0.000000 0.000000
					CHANNELS 3 Zrotation Yrotation Xrotation
					JOINT RightArm
					{
						OFFSET -3.136600 1.374050 -0.404650
						CHANNELS 3 Zrotation Yrotation Xrotation
						JOINT RightForeArm
						{
							OFFSET -5.241900 -0.000000 -0.000000
							CHANNELS 3 Zrotation Yrotation Xrotation
							JOINT RightHand
							{
								OFFSET -3.444170 -0.000000 -0.000000
								CHANNELS 3 Zrotation Yrotation Xrotation
								JOINT RightFingerBase
								{
									OFFSET 0.000000 0.000000 0.000000
									CHANNELS 3 Zrotation Yrotation Xrotation
									JOINT RightHandIndex1
									{
										OFFSET -0.622530 -0.000000 -0.000000
										CHANNELS 3 Zrotation Yrotation Xrotation
										End Site
										{
											OFFSET 0.000000 0.000000 0.000000
										}
									}
								}
								JOINT RThumb
								{
									OFFSET 0.000000 0.000000 0.000000
									CHANNELS 3 Zrotation Yrotation Xrotation
									End Site
									{
										OFFSET 0.000000 0.000000 0.000000
									}
								}
							}
						}
					}
				}
			}
		}
	}
}
}
MOTION
Frames: 11
Frame Time: 0.008333
-1.569557 16.647258 0.304489 -158.441200 76.717362 -147.268785 -6.978904 0.105348 4.265818 -2.214519 0.466991 -2.095673 -6.000644 0.442266 0.835362 5.683513 -4.108287 -7.424774 -2.986276 -0.218895 -0.126821 0.000000 0.000000 0.000000 -7.032702 13.376941 2.579734 -65.447215 16.324987 6.200207 -4.251076 -27.536383 -0.024241 -12.282986 6.495309 -0.703524 -0.075315 -0.072273 -0.000000 0.000000 0.000000 0.000000 0.000000 0.000000 0.000000 9.833043 0.859332 1.800715 43.981941 28.245949 18.541501 1.633978 58.702352 0.033379 12.812306 6.429172 0.754474 -0.128512 -0.216238 0.000000 0.000000 0.000000 0.000000 0.000000 0.000000 0.000000 
-1.439827 16.650850 0.237447 -160.037309 76.185671 -148.761458 -7.171399 0.009231 4.325546 -2.255791 0.377530 -2.099545 -6.034763 0.350720 0.763580 5.492333 -4.088686 -7.383007 -3.030055 -0.222087 -0.122389 0.000000 0.000000 0.000000 -7.136817 12.850104 2.640668 -65.255469 15.340240 6.465743 -4.260010 -27.054245 -0.022969 -12.074622 6.638543 -0.705687 -0.077003 -0.065915 -0.000000 0.000000 0.000000 0.000000 0.000000 0.000000 0.000000 9.765923 0.818935 1.770923 45.042685 27.442834 18.731882 1.671688 58.415903 0.033173 12.812480 6.380354 0.748291 -0.124465 -0.212589 0.000000 0.000000 0.000000 0.000000 0.000000 0.000000 0.000000 
-1.316287 16.656801 0.167171 -161.423288 75.569534 -150.072349 -7.247492 -0.070037 4.430706 -2.273063 0.300361 -2.093163 -6.062950 0.271957 0.696761 5.250531 -4.076545 -7.327981 -3.075114 -0.225447 -0.114929 0.000000 0.000000 0.000000 -7.244562 12.302054 2.698521 -65.070951 14.210778 6.772660 -4.262916 -26.593894 -0.021502 -11.821880 6.767625 -0.703142 -0.078495 -0.058816 -0.000000 0.000000 0.000000 0.000000 0.000000 0.000000 0.000000 9.653004 0.762468 1.737386 46.073347 26.575931 18.880744 1.708020 58.104162 0.032814 12.803829 6.336227 0.742105 -0.120551 -0.208552 0.000000 0.000000 0.000000 0.000000 0.000000 0.000000 0.000000 
-1.198213 16.665279 0.093471 -162.574077 74.883355 -151.181564 -7.210023 -0.131151 4.573172 -2.267489 0.236983 -2.077524 -6.087304 0.207490 0.638434 4.971327 -4.065735 -7.259490 -3.121982 -0.229019 -0.104311 0.000000 0.000000 0.000000 -7.356720 11.760237 2.750427 -64.893338 12.938942 7.103318 -4.260139 -26.177207 -0.019872 -11.531545 6.871446 -0.695192 -0.079774 -0.051091 -0.000000 0.000000 0.000000 0.000000 0.000000 0.000000 0.000000 9.510816 0.696530 1.700428 47.059750 25.650938 18.996656 1.743697 57.760793 0.032290 12.795057 6.292481 0.735917 -0.116868 -0.203937 0.000000 0.000000 0.000000 0.000000 0.000000 0.000000 0.000000 
-1.084730 16.676498 0.016335 -163.491897 74.142563 -152.091574 -7.068226 -0.174684 4.740817 -2.241380 0.187390 -2.054124 -6.110088 0.157276 0.592712 4.671062 -4.055455 -7.179184 -3.171008 -0.232812 -0.090853 0.000000 0.000000 0.000000 -7.474205 11.250855 2.793196 -64.721433 11.532270 7.441013 -4.252449 -25.828047 -0.018126 -11.214709 6.938944 -0.681536 -0.080838 -0.042897 -0.000000 0.000000 0.000000 0.000000 0.000000 0.000000 0.000000 9.359894 0.621708 1.660826 47.988825 24.684101 19.095821 1.780018 57.373951 0.031591 12.791272 6.246869 0.729726 -0.113408 -0.198590 0.000000 0.000000 0.000000 0.000000 0.000000 0.000000 0.000000 
-0.974896 16.690534 -0.064145 -164.199143 73.362578 -152.820064 -6.836107 -0.202690 4.918967 -2.197745 0.150304 -2.025125 -6.133029 0.119935 0.562644 4.365576 -4.040574 -7.088580 -3.221728 -0.236778 -0.074779 0.000000 0.000000 0.000000 -7.596133 10.801296 2.824758 -64.554190 9.997389 7.778516 -4.241338 -25.565754 -0.016306 -10.884911 6.957979 -0.662076 -0.081726 -0.034378 -0.000000 0.000000 0.000000 0.000000 0.000000 0.000000 0.000000 9.214961 0.543275 1.617941 48.858954 23.682682 19.186353 1.818163 56.934464 0.030716 12.801336 6.193753 0.723431 -0.110211 -0.192354 0.000000 0.000000 0.000000 0.000000 0.000000 0.000000 0.000000 
-0.867750 16.707541 -0.147748 -164.728944 72.556184 -153.391609 -6.530631 -0.218463 5.092339 -2.140265 0.123258 -1.992999 -6.158560 0.092894 0.549903 4.072388 -4.029635 -6.990106 -3.273981 -0.240898 -0.056445 0.000000 0.000000 0.000000 -7.723869 10.415286 2.842488 -64.389294 8.369369 8.099228 -4.227734 -25.427513 -0.014468 -10.560657 6.922479 -0.637912 -0.082449 -0.025805 -0.000000 0.000000 0.000000 0.000000 0.000000 0.000000 0.000000 9.097230 0.451815 1.574396 49.663723 22.674947 19.292147 1.860401 56.425013 0.029667 12.824731 6.134467 0.717033 -0.107093 -0.185188 0.000000 0.000000 0.000000 0.000000 0.000000 0.000000 0.000000 
-0.762436 16.727423 -0.234143 -165.119156 71.733074 -153.833676 -6.169112 -0.225763 5.245958 -2.072423 0.103186 -1.960781 -6.188062 0.072923 0.553602 3.804580 -4.020058 -6.884236 -3.326626 -0.245101 -0.035632 0.000000 0.000000 0.000000 -7.854613 10.096090 2.846161 -64.226017 6.679052 8.403391 -4.213098 -25.440559 -0.012654 -10.260888 6.827639 -0.610247 -0.083054 -0.017376 -0.000000 0.000000 0.000000 0.000000 0.000000 0.000000 0.000000 9.014977 0.350565 1.530629 50.411308 21.665837 19.417042 1.908156 55.837355 0.028462 12.868191 6.064251 0.710332 -0.104022 -0.177052 0.000000 0.000000 0.000000 0.000000 0.000000 0.000000 0.000000 
-0.658201 16.750033 -0.322971 -165.406151 70.898599 -154.170137 -5.768392 -0.228876 5.366536 -1.997473 0.086315 -1.931030 -6.222300 0.056154 0.573080 3.572111 -4.008784 -6.772744 -3.378060 -0.249264 -0.012512 0.000000 0.000000 0.000000 -7.982548 9.849935 2.836741 -64.063356 4.946286 8.710409 -4.199096 -25.621766 -0.010878 -10.002175 6.671644 -0.580280 -0.083615 -0.009208 -0.000000 0.000000 0.000000 0.000000 0.000000 0.000000 0.000000 8.970880 0.243721 1.485913 51.114031 20.655526 19.556918 1.962138 55.167429 0.027116 12.936233 5.978876 0.703129 -0.100978 -0.167976 0.000000 0.000000 0.000000 0.000000 0.000000 0.000000 0.000000 
-0.554403 16.775064 -0.413772 -165.622818 70.053687 -154.421827 -5.342222 -0.232020 5.443425 -1.918062 0.068657 -1.906151 -6.261977 0.038537 0.606047 3.382547 -3.999156 -6.657026 -3.426939 -0.253301 0.012884 0.000000 0.000000 0.000000 -8.102355 9.665022 2.815654 -63.899204 3.206134 9.037429 -4.186432 -25.995394 -0.009153 -9.799749 6.460152 -0.549512 -0.084168 -0.001439 -0.000000 0.000000 0.000000 0.000000 0.000000 0.000000 0.000000 8.967113 0.129227 1.441478 51.782330 19.650611 19.711214 2.023340 54.411405 0.025656 13.029648 5.877923 0.695225 -0.097869 -0.158076 0.000000 0.000000 0.000000 0.000000 0.000000 0.000000 0.000000 
-0.450585 16.802123 -0.506182 -165.795183 69.195756 -154.603722 -4.901228 -0.239025 5.468815 -1.836100 0.046382 -1.887763 -6.307035 0.016262 0.651004 3.239277 -3.994591 -6.539939 -3.471744 -0.257088 0.040036 0.000000 0.000000 0.000000 -8.207536 9.535130 2.785078 -63.731577 1.478574 9.416513 -4.175531 -26.572504 -0.007472 -9.662635 6.201633 -0.519342 -0.084738 0.005903 -0.000000 0.000000 0.000000 0.000000 0.000000 0.000000 0.000000 9.000510 0.005656 1.397516 52.426826 18.653917 19.873070 2.091923 53.571118 0.024102 13.146305 5.761423 0.686518 -0.094625 -0.147522 0.000000 0.000000 0.000000 0.000000 0.000000 0.000000 0.000000 
